<svg version="1.1" viewBox="0.0 0.0 252.50918635170603 335.90551181102364" fill="none" stroke="none" stroke-linecap="square" stroke-miterlimit="10" xmlns:xlink="http://www.w3.org/1999/xlink" xmlns="http://www.w3.org/2000/svg"><clipPath id="p.0"><path d="m0 0l252.50919 0l0 335.90552l-252.50919 0l0 -335.90552z" clip-rule="nonzero"/></clipPath><g clip-path="url(#p.0)"><path fill="#000000" fill-opacity="0.0" d="m0 0l252.50919 0l0 335.90552l-252.50919 0z" fill-rule="evenodd"/><path fill="#000000" fill-opacity="0.0" d="m31.11148 27.07653l38.897636 0l0 342.58267l-38.897636 0z" fill-rule="evenodd"/><path fill="#000000" d="m105.658356 293.40466q-27.078125 0 -40.984375 -26.21875q-13.890625 -26.21875 -13.890625 -72.390625q0 -46.4375 13.890625 -72.78126q13.90625 -26.359375 40.984375 -26.359375q18.046875 0 30.671875 10.828125q3.140625 2.34375 3.140625 6.453125q0 8.484375 -8.484375 8.484375q-3.359375 0 -5.609375 -2.25q-8.140625 -6.8125 -19.71875 -6.8125q-17.34375 0 -27.640625 20.812508q-10.28125 20.796875 -10.28125 61.625q0 40.578125 10.28125 61.25q10.28125 20.671875 27.90625 20.671875q5.984375 0 11.59375 -1.984375q5.625 -1.984375 8.1875 -5.125l0 -51.65625l-23.25 0q-8.21875 0 -8.21875 -8.484375q0 -8.21875 8.21875 -8.21875l31.734375 0q8.21875 0 8.21875 8.21875l0 62.9375q0 3.65625 -2.328125 5.9375q-13.265625 15.0625 -34.421875 15.0625z" fill-rule="nonzero"/><path fill="#000000" fill-opacity="0.0" d="m101.920944 -46.58489l64.34645 0l0 342.5827l-64.34645 0z" fill-rule="evenodd"/><path fill="#000000" d="m135.1397 218.41512q-8.21875 0 -8.21875 -8.21875l0 -178.65625q0 -8.21875 8.21875 -8.21875l25.859375 0q21.828125 0 33.28125 16.437498q11.46875 16.4375 11.46875 45.64063q0 25.28125 -7.546875 33.921875q3.5625 4.90625 7.015625 16.015625q3.453125 11.09375 3.453125 24.203125q0 26.5625 -13.625 42.71875q-13.609375 16.15625 -37.25 16.15625l-22.65625 0zm25.859375 -178.39062l-17.390625 0l0 161.70312l14.1875 0q15.796875 0 24.859375 -10.890625q9.0625 -10.90625 9.0625 -31.296875q0 -10.125 -2.546875 -18.609375q-2.53125 -8.484375 -3.875 -10.3125q-2.84375 1.9375 -13.09375 1.9375q-12.484375 0 -21.6875 -6.6875q-9.1875 -6.703125 -9.1875 -15.921875q0 -13.015625 17.53125 -13.015625q9.71875 0 17.953125 3.65625q8.234375 3.65625 10.125 5.625q1.84375 -2.421875 1.84375 -20.8125q0 -23.421879 -7.140625 -34.39063q-7.125 -10.984375 -20.640625 -10.984375zm-2.984375 70.984375q0 0.15625 3.890625 2.640625q3.90625 2.46875 10.296875 2.46875q4.75 0 3.9375 1.75q-5.5625 -4.515625 -17.0 -4.515625q-3.46875 -2.34375 -1.125 -2.34375z" fill-rule="nonzero"/><path fill="#000000" fill-opacity="0.0" d="m65.2414 -47.20827l28.18898 0l0 342.5827l-28.18898 0z" fill-rule="evenodd"/><path fill="#000000" d="m98.46015 217.79173q-8.21875 0 -8.21875 -8.21875l0 -178.65625q0 -8.21875 8.21875 -8.21875l28.53125 0q20.203133 0 30.734383 14.96875q10.546875 14.96875 10.546875 37.250004q0 24.03125 -12.5 39.984375q-12.484375 15.953125 -36.250008 15.953125q-4.65625 0 -9.71875 -0.71875q-5.0625 -0.71875 -4.890625 -2.765625l2.015625 82.203125q0 8.21875 -8.46875 8.21875zm28.53125 -178.39062l-20.0625 0l0 73.359375q5.3125 1.40625 12.59375 1.40625q14.765633 0 23.265633 -9.984375q8.515625 -9.984375 8.515625 -29.265625q0 -15.781254 -5.984375 -25.640629q-5.984375 -9.875 -18.328133 -9.875z" fill-rule="nonzero"/></g></svg>