<svg version="1.1" viewBox="0.0 0.0 252.50918635170603 335.90551181102364" fill="none" stroke="none" stroke-linecap="square" stroke-miterlimit="10" xmlns:xlink="http://www.w3.org/1999/xlink" xmlns="http://www.w3.org/2000/svg"><clipPath id="p.0"><path d="m0 0l252.50919 0l0 335.90552l-252.50919 0l0 -335.90552z" clip-rule="nonzero"/></clipPath><g clip-path="url(#p.0)"><path fill="#000000" fill-opacity="0.0" d="m0 0l252.50919 0l0 335.90552l-252.50919 0z" fill-rule="evenodd"/><path fill="#000000" fill-opacity="0.0" d="m31.11148 27.07653l38.897636 0l0 342.58267l-38.897636 0z" fill-rule="evenodd"/><path fill="#00ff00" d="m100.11148 293.40466q-23.734375 0 -36.53125 -24.125q-12.796875 -24.140625 -12.796875 -68.9375q0 -45.0625 12.796875 -69.328125q12.796875 -24.265633 36.53125 -24.265633q16.0 0 27.203125 9.609375q1.0625 0.796875 1.0625 2.125q0 2.9375 -2.9375 2.9375q-1.0625 0 -1.859375 -0.796875q-9.875 -8.265625 -23.46875 -8.265625q-20.796875 0 -32.140625 22.937508q-11.328125 22.921875 -11.328125 65.046875q0 41.875 11.328125 64.671875q11.34375 22.796875 32.40625 22.796875q6.9375 0 13.734375 -2.390625q6.796875 -2.40625 11.59375 -8.28125l0 -59.1875l-28.796875 0q-2.671875 0 -2.671875 -2.9375q0 -2.671875 2.671875 -2.671875l31.734375 0q2.671875 0 2.671875 2.671875l0 62.9375q0 1.328125 -0.8125 2.125q-11.734375 13.328125 -30.390625 13.328125z" fill-rule="nonzero"/><path fill="#000000" fill-opacity="0.0" d="m101.920944 -46.58489l64.34645 0l0 342.5827l-64.34645 0z" fill-rule="evenodd"/><path fill="#0000ff" d="m129.59282 218.41512q-2.671875 0 -2.671875 -2.671875l0 -178.65625q0 -2.671875 2.671875 -2.671875l25.859375 0q18.9375 0 29.0625 14.546875q10.140625 14.53125 10.140625 41.98438q0 23.203125 -9.078125 33.609375q5.609375 7.734375 8.796875 18.0q3.203125 10.265625 3.203125 22.53125q0 24.53125 -12.140625 38.9375q-12.125 14.390625 -33.1875 14.390625l-22.65625 0zm25.859375 -178.39062l-22.9375 0l0 172.79688l19.734375 0q18.40625 0 28.9375 -12.671875q10.53125 -12.671875 10.53125 -35.0625q0 -10.9375 -2.796875 -20.265625q-2.796875 -9.34375 -7.875 -16.265625q-5.859375 4.0 -14.390625 4.0q-10.671875 0 -18.0 -5.328125q-7.328125 -5.34375 -7.328125 -11.734375q0 -7.46875 11.984375 -7.46875q8.546875 0 15.734375 3.203125q7.203125 3.1875 12.8125 9.0625q6.921875 -9.078125 6.921875 -29.34375q0 -25.0625 -8.40625 -37.98438q-8.390625 -12.9375 -24.921875 -12.9375zm-8.53125 76.53125q0 3.203125 5.859375 6.9375q5.875 3.71875 13.875 3.71875q6.390625 0 10.921875 -2.921875q-10.125 -10.9375 -23.984375 -10.9375q-6.671875 0 -6.671875 3.203125z" fill-rule="nonzero"/><path fill="#000000" fill-opacity="0.0" d="m65.2414 -47.20827l28.18898 0l0 342.5827l-28.18898 0z" fill-rule="evenodd"/><path fill="#ff0000" d="m92.91328 217.79173q-2.671875 0 -2.671875 -2.671875l0 -178.65625q0 -2.671875 2.671875 -2.671875l28.53125 0q17.328133 0 26.531258 13.078125q9.203125 13.0625 9.203125 33.593754q0 22.125 -11.078125 36.265625q-11.0625 14.125 -32.125008 14.125q-4.265625 0 -8.9375 -0.65625q-4.671875 -0.671875 -9.203125 -2.0l0 86.921875q0 2.671875 -2.921875 2.671875zm28.53125 -178.39062l-25.609375 0l0 83.1875q10.140625 2.671875 18.140625 2.671875q17.328133 0 27.328133 -11.734375q10.0 -11.734375 10.0 -33.0625q0 -17.328129 -7.203125 -29.187504q-7.1875 -11.875 -22.656258 -11.875z" fill-rule="nonzero"/></g></svg>